Coordinates
version=1
nRows=65
nColumns=12
inDegrees=yes

Units are S.I. units (second, meters, Newtons, ...)
Angles are in degrees

endheader
time	SC_y	SC_z	SC_x	AC_y	AC_z	AC_x	GH_y	GH_z	GH_yy	EL_x	PS_y
       0.0              -45.26          -0.31          79.28          40.65         -9.547         -16.82          120.3          88.58         -107.8          49.12           43.1
   0.01073              -45.26        -0.3093          79.28          40.65         -9.547         -16.82          120.3          88.57         -107.8          49.13          43.11
   0.02145              -45.26        -0.3086          79.28          40.65         -9.548         -16.82          120.3          88.55         -107.8          49.14          43.12
   0.03218              -45.26        -0.3078          79.28          40.65         -9.549         -16.82          120.3          88.54         -107.8          49.15          43.14
    0.0429              -45.26         -0.307          79.28          40.65          -9.55         -16.82          120.3          88.53         -107.8          49.16          43.15
   0.05363              -45.26        -0.3061          79.28          40.65         -9.551         -16.81          120.2          88.51         -107.8          49.17          43.17
   0.06436              -45.26        -0.3052          79.28          40.65         -9.552         -16.81          120.2           88.5         -107.8          49.18          43.18
   0.07508              -45.26        -0.3042          79.28          40.65         -9.553         -16.81          120.2          88.48         -107.8          49.19           43.2
   0.08581              -45.26        -0.3031          79.28          40.65         -9.555         -16.81          120.2          88.47         -107.8           49.2          43.22
   0.09653              -45.26         -0.302          79.28          40.65         -9.556         -16.81          120.2          88.45         -107.8          49.21          43.24
    0.1073              -45.26        -0.3007          79.28          40.65         -9.558         -16.81          120.2          88.43         -107.8          49.22          43.26
     0.118              -45.26        -0.2994          79.28          40.65         -9.559         -16.81          120.2          88.41         -107.7          49.24          43.29
    0.1287              -45.26         -0.298          79.28          40.65         -9.561          -16.8          120.2          88.38         -107.7          49.25          43.31
    0.1394              -45.26        -0.2964          79.28          40.65         -9.563          -16.8          120.2          88.36         -107.7          49.27          43.34
    0.1502              -45.26        -0.2947          79.28          40.65         -9.565          -16.8          120.1          88.33         -107.7          49.29          43.37
    0.1609              -45.26        -0.2929          79.28          40.65         -9.567          -16.8          120.1           88.3         -107.7          49.31           43.4
    0.1716              -45.26         -0.291          79.28          40.65         -9.569          -16.8          120.1          88.27         -107.7          49.33          43.44
    0.1823              -45.26        -0.2888          79.28          40.65         -9.572         -16.79          120.1          88.24         -107.7          49.35          43.47
    0.1931              -45.26        -0.2865          79.28          40.65         -9.575         -16.79          120.1           88.2         -107.7          49.37          43.52
    0.2038              -45.26        -0.2839          79.28          40.65         -9.578         -16.79          120.0          88.16         -107.7           49.4          43.56
    0.2145              -45.26        -0.2811          79.28          40.65         -9.581         -16.78          120.0          88.11         -107.7          49.43          43.61
    0.2252              -45.26         -0.278          79.28          40.65         -9.585         -16.78          120.0          88.06         -107.6          49.46          43.67
     0.236              -45.27        -0.2745          79.28          40.65         -9.589         -16.78          120.0          88.01         -107.6           49.5          43.73
    0.2467              -45.27        -0.2707          79.27          40.65         -9.594         -16.77          119.9          87.94         -107.6          49.54          43.79
    0.2574              -45.27        -0.2665          79.27          40.65         -9.599         -16.77          119.9          87.88         -107.6          49.59          43.87
    0.2681              -45.27        -0.2618          79.27          40.65         -9.604         -16.76          119.9           87.8         -107.6          49.63          43.95
    0.2789              -45.27        -0.2565          79.27          40.65         -9.611         -16.76          119.8          87.71         -107.5          49.69          44.05
    0.2896              -45.27        -0.2506          79.27          40.65         -9.618         -16.75          119.8          87.62         -107.5          49.75          44.15
    0.3003              -45.27        -0.2439          79.27          40.65         -9.626         -16.74          119.7          87.51         -107.5          49.83          44.27
    0.3111              -45.27        -0.2362          79.27          40.65         -9.635         -16.73          119.6          87.39         -107.5          49.91          44.41
    0.3218              -45.28        -0.2275          79.27          40.65         -9.645         -16.72          119.6          87.25         -107.4           50.0          44.56
    0.3325              -45.28        -0.2176          79.27          40.65         -9.657         -16.71          119.5          87.09         -107.4           50.1          44.74
    0.3432              -45.28         -0.206          79.27          40.65         -9.671         -16.69          119.4           86.9         -107.3          50.23          44.94
     0.354              -45.28        -0.1926          79.26          40.65         -9.687         -16.68          119.2          86.69         -107.3          50.37          45.18
    0.3647              -45.29         -0.177          79.26          40.65         -9.706         -16.66          119.1          86.43         -107.2          50.53          45.46
    0.3754              -45.29        -0.1585          79.26          40.66         -9.728         -16.64          118.9          86.14         -107.1          50.73          45.79
    0.3861               -45.3        -0.1366          79.26          40.66         -9.754         -16.61          118.8          85.78         -107.0          50.96          46.18
    0.3969               -45.3        -0.1102          79.25          40.66         -9.786         -16.58          118.5          85.36         -106.9          51.24          46.64
    0.4076              -45.31       -0.07841          79.25          40.66         -9.824         -16.54          118.2          84.84         -106.7          51.58          47.21
    0.4183              -45.32       -0.03952          79.24          40.66          -9.87          -16.5          117.9          84.22         -106.6          51.99           47.9
     0.429              -45.33       0.008477          79.24          40.66         -9.928         -16.44          117.5          83.44         -106.3           52.5          48.75
    0.4398              -45.34        0.06833          79.23          40.67         -9.999         -16.37          116.9          82.48         -106.1          53.13          49.81
    0.4505              -45.36         0.1437          79.22          40.67         -10.09         -16.28          116.3          81.26         -105.7          53.93          51.15
    0.4612              -45.38         0.2396          79.21          40.67          -10.2         -16.16          115.4          79.72         -105.3          54.95          52.85
    0.4719               -45.4         0.3622          79.19          40.68         -10.35         -16.01          114.4          77.74         -104.7          56.25          55.03
    0.4827              -45.44         0.5197          79.17          40.69         -10.54         -15.83          113.0           75.2         -104.0          57.92          57.82
    0.4934              -45.48         0.7207          79.15          40.69         -10.78         -15.58          111.2          71.96         -103.1          60.05          61.39
    0.5041              -45.53         0.9736          79.11          40.71         -11.08         -15.28          109.0          67.89         -101.9          62.73          65.88
    0.5148               -45.6          1.282          79.07          40.72         -11.45         -14.91          106.3          62.92         -100.5           66.0          71.34
    0.5256              -45.68          1.639          79.03          40.73         -11.88         -14.48          103.1          57.17         -98.84          69.78          77.68
    0.5363              -45.76          2.026          78.98          40.75         -12.34         -14.02          99.73          50.93         -97.06          73.88          84.54
     0.547              -45.84          2.412          78.93          40.77          -12.8         -13.56          96.33           44.7         -95.29          77.98          91.41
    0.5578              -45.92          2.769          78.88          40.78         -13.23         -13.13          93.18          38.94         -93.65          81.76          97.75
    0.5685              -45.98          3.078          78.84           40.8          -13.6         -12.76          90.47          33.98         -92.23          85.03          103.2
    0.5792              -46.04           3.33          78.81          40.81          -13.9         -12.46          88.25           29.9         -91.07          87.71          107.7
    0.5899              -46.08          3.532          78.78          40.82         -14.14         -12.22          86.48          26.66         -90.14          89.84          111.3
    0.6007              -46.11          3.689          78.76          40.82         -14.33         -12.03           85.1          24.12         -89.42          91.51          114.1
    0.6114              -46.14          3.812          78.74          40.83         -14.48         -11.88          84.02          22.15         -88.86          92.81          116.2
    0.6221              -46.16          3.907          78.73          40.83         -14.59         -11.77          83.17           20.6         -88.42          93.83          117.9
    0.6328              -46.18          3.983          78.72          40.84         -14.68         -11.68          82.51          19.39         -88.07          94.63          119.3
    0.6436              -46.19          4.043          78.71          40.84         -14.76         -11.61          81.98          18.42          -87.8          95.26          120.3
    0.6543               -46.2          4.091          78.71          40.84         -14.81         -11.55          81.56          17.65         -87.58          95.77          121.2
     0.665              -46.21           4.13           78.7          40.84         -14.86          -11.5          81.22          17.02          -87.4          96.18          121.9
    0.6757              -46.22          4.161           78.7          40.85          -14.9         -11.46          80.94          16.51         -87.25          96.52          122.4
    0.6865              -46.22          4.188          78.69          40.85         -14.93         -11.43          80.71          16.09         -87.13           96.8          122.9
